<mxfile host="app.diagrams.net" agent="Mozilla/5.0 (X11; Linux x86_64) AppleWebKit/537.36 (KHTML, like Gecko) Chrome/133.0.0.0 Safari/537.36" version="26.2.14">
  <diagram name="Page-1" id="VhOipWEWv1umOFi9V3ZE">
    <mxGraphModel dx="1356" dy="764" grid="1" gridSize="10" guides="1" tooltips="1" connect="1" arrows="1" fold="1" page="1" pageScale="1" pageWidth="850" pageHeight="1100" math="0" shadow="0">
      <root>
        <mxCell id="0" />
        <mxCell id="1" parent="0" />
        <mxCell id="xDIV-SEqRlnvi9hD1Aq5-1" value="" style="rounded=1;whiteSpace=wrap;html=1;perimeterSpacing=0;strokeWidth=1;fillOpacity=100;arcSize=42;" vertex="1" parent="1">
          <mxGeometry x="200" y="500" width="130" height="60" as="geometry" />
        </mxCell>
        <mxCell id="xDIV-SEqRlnvi9hD1Aq5-2" value="" style="rounded=1;whiteSpace=wrap;html=1;" vertex="1" parent="1">
          <mxGeometry x="150" y="410" width="120" height="60" as="geometry" />
        </mxCell>
      </root>
    </mxGraphModel>
  </diagram>
</mxfile>
